<?xml version="1.0" standalone="no"?>
<!DOCTYPE svg PUBLIC "-//W3C//DTD SVG 20010904//EN"
 "http://www.w3.org/TR/2001/REC-SVG-20010904/DTD/svg10.dtd">
<svg version="1.0" xmlns="http://www.w3.org/2000/svg"
 width="500.000000pt" height="500.000000pt" viewBox="0 0 500.000000 500.000000"
 preserveAspectRatio="xMidYMid meet">

<g transform="translate(0.000000,500.000000) scale(0.100000,-0.100000)" fill="#55c57a" stroke="none">
<path d="M2315 3670 c3 -5 8 -10 11 -10 2 0 4 5 4 10 0 6 -5 10 -11 10 -5 0
-7 -4 -4 -10z"/>
<path d="M2433 3625 c0 -33 2 -45 4 -27 2 18 2 45 0 60 -2 15 -4 0 -4 -33z"/>
<path d="M2480 3676 c0 -2 7 -7 16 -10 8 -3 12 -2 9 4 -6 10 -25 14 -25 6z"/>
<path d="M2593 3625 c0 -27 2 -38 4 -22 2 15 2 37 0 50 -2 12 -4 0 -4 -28z"/>
<path d="M2522 3625 c0 -16 2 -22 5 -12 2 9 2 23 0 30 -3 6 -5 -1 -5 -18z"/>
<path d="M2672 3630 c0 -14 2 -19 5 -12 2 6 2 18 0 25 -3 6 -5 1 -5 -13z"/>
<path d="M2293 3600 c2 -8 12 -16 23 -17 13 -2 15 -1 4 4 -8 3 -19 11 -23 17
-6 7 -7 6 -4 -4z"/>
<path d="M2641 3589 c-7 -12 -10 -23 -8 -26 3 -3 11 5 17 17 6 12 10 23 8 25
-2 2 -10 -5 -17 -16z"/>
<path d="M2730 3600 c0 -5 5 -10 11 -10 5 0 7 5 4 10 -3 6 -8 10 -11 10 -2 0
-4 -4 -4 -10z"/>
<path d="M1905 3510 c-3 -6 1 -7 9 -4 18 7 21 14 7 14 -6 0 -13 -4 -16 -10z"/>
<path d="M2881 3494 c0 -11 3 -14 6 -6 3 7 2 16 -1 19 -3 4 -6 -2 -5 -13z"/>
<path d="M2231 3395 c-40 -48 -94 -117 -119 -154 -25 -36 -84 -106 -131 -156
-62 -64 -98 -113 -128 -172 -146 -284 -186 -372 -222 -483 -23 -69 -41 -127
-41 -129 0 -2 42 -1 93 2 110 6 217 34 217 55 0 8 -16 56 -36 106 l-37 91 33
90 c17 50 34 112 37 138 5 43 9 51 47 75 22 14 43 27 45 29 2 1 -4 15 -14 30
-21 32 -24 105 -6 127 7 8 28 20 46 26 27 9 40 8 64 -5 36 -18 65 -77 57 -117
-5 -23 -1 -30 24 -43 16 -9 37 -26 46 -40 8 -13 35 -33 58 -44 64 -31 88 -58
76 -81 -13 -24 -39 -26 -66 -5 -10 8 -21 15 -24 15 -17 1 -38 -66 -44 -137
l-6 -83 67 0 c52 0 78 6 108 23 49 27 56 60 27 121 -11 22 -32 73 -47 111 -14
39 -38 88 -52 109 -20 31 -24 47 -20 78 5 37 4 39 -24 45 -35 7 -69 46 -69 80
0 35 42 73 81 73 24 0 41 -10 71 -40 21 -23 38 -47 38 -55 0 -23 16 -26 55 -9
21 8 47 13 59 10 20 -5 56 18 56 37 0 5 8 16 17 22 20 15 53 3 53 -18 0 -14
202 -137 225 -137 8 0 15 2 15 5 0 2 -27 42 -60 88 -33 47 -60 87 -60 90 0 9
56 37 72 37 15 0 142 -169 134 -177 -2 -3 -26 11 -52 31 -70 53 -68 33 3 -32
85 -79 126 -149 53 -92 -29 23 -41 25 -34 7 2 -7 18 -21 35 -31 23 -14 41 -16
84 -11 31 4 57 11 60 15 5 8 -134 178 -223 273 -48 52 -59 55 -128 26 -30 -12
-33 -11 -71 29 -33 35 -46 42 -78 42 -40 0 -51 9 -163 133 -42 47 -60 60 -90
64 -36 5 -39 3 -111 -82z m147 41 c24 -13 82 -77 82 -90 0 -3 -8 -3 -17 1 -13
4 -11 -2 8 -23 37 -40 63 -84 51 -84 -5 0 -15 7 -23 16 -7 8 -36 31 -66 51
-29 19 -62 48 -74 64 l-21 30 -34 -22 c-49 -30 -52 -18 -9 30 40 44 60 49 103
27z"/>
<path d="M2880 3465 c0 -5 5 -17 10 -25 5 -8 10 -10 10 -5 0 6 -5 17 -10 25
-5 8 -10 11 -10 5z"/>
<path d="M3030 3456 c0 -2 7 -7 16 -10 8 -3 12 -2 9 4 -6 10 -25 14 -25 6z"/>
<path d="M1900 3441 c0 -6 4 -13 10 -16 6 -3 7 1 4 9 -7 18 -14 21 -14 7z"/>
<path d="M1938 3413 c7 -3 16 -2 19 1 4 3 -2 6 -13 5 -11 0 -14 -3 -6 -6z"/>
<path d="M1759 3367 c5 -5 19 -7 32 -5 20 3 19 5 -9 9 -20 3 -29 2 -23 -4z"/>
<path d="M3134 3324 c-18 -14 -18 -15 4 -4 12 6 22 13 22 15 0 8 -5 6 -26 -11z"/>
<path d="M3060 3279 c0 -5 9 -9 20 -9 11 0 20 2 20 4 0 2 -9 6 -20 9 -11 3
-20 1 -20 -4z"/>
<path d="M1660 3236 c0 -8 4 -17 9 -20 5 -4 7 3 4 14 -6 23 -13 26 -13 6z"/>
<path d="M3226 3215 c-3 -8 -1 -15 4 -15 6 0 10 7 10 15 0 8 -2 15 -4 15 -2 0
-6 -7 -10 -15z"/>
<path d="M1635 3209 c-4 -6 -5 -12 -2 -15 2 -3 7 2 10 11 7 17 1 20 -8 4z"/>
<path d="M3258 3143 c7 -3 16 -2 19 1 4 3 -2 6 -13 5 -11 0 -14 -3 -6 -6z"/>
<path d="M1640 3110 c-6 -11 -8 -20 -6 -20 3 0 10 9 16 20 6 11 8 20 6 20 -3
0 -10 -9 -16 -20z"/>
<path d="M2586 3064 c-9 -22 0 -32 47 -53 45 -20 137 -44 143 -38 5 5 -163
107 -176 107 -4 0 -11 -7 -14 -16z"/>
<path d="M1670 3049 c0 -5 5 -7 10 -4 6 3 10 8 10 11 0 2 -4 4 -10 4 -5 0 -10
-5 -10 -11z"/>
<path d="M1600 2990 c0 -13 11 -13 30 0 12 8 11 10 -7 10 -13 0 -23 -4 -23
-10z"/>
<path d="M1650 2989 c0 -5 5 -7 10 -4 6 3 10 8 10 11 0 2 -4 4 -10 4 -5 0 -10
-5 -10 -11z"/>
<path d="M1553 2975 c-7 -8 -9 -16 -4 -19 5 -3 12 1 15 10 8 22 4 25 -11 9z"/>
<path d="M2551 2963 c35 -43 59 -101 53 -130 -4 -22 1 -39 20 -68 14 -21 26
-42 26 -46 0 -5 34 11 76 36 77 46 198 105 215 105 18 0 8 16 -20 33 -19 11
-51 17 -93 17 -88 0 -173 17 -230 46 -56 29 -66 30 -47 7z"/>
<path d="M1548 2863 c7 -3 16 -2 19 1 4 3 -2 6 -13 5 -11 0 -14 -3 -6 -6z"/>
<path d="M1521 2844 c0 -11 3 -14 6 -6 3 7 2 16 -1 19 -3 4 -6 -2 -5 -13z"/>
<path d="M3128 2853 c12 -2 30 -2 40 0 9 3 -1 5 -23 4 -22 0 -30 -2 -17 -4z"/>
<path d="M1585 2840 c-3 -5 1 -10 9 -10 9 0 16 5 16 10 0 6 -4 10 -9 10 -6 0
-13 -4 -16 -10z"/>
<path d="M3206 2841 c-4 -5 3 -7 14 -4 23 6 26 13 6 13 -8 0 -17 -4 -20 -9z"/>
<path d="M2998 2823 c7 -3 16 -2 19 1 4 3 -2 6 -13 5 -11 0 -14 -3 -6 -6z"/>
<path d="M3250 2820 c0 -5 4 -10 9 -10 6 0 13 5 16 10 3 6 -1 10 -9 10 -9 0
-16 -4 -16 -10z"/>
<path d="M1528 2793 c6 -2 18 -2 25 0 6 3 1 5 -13 5 -14 0 -19 -2 -12 -5z"/>
<path d="M3275 2790 c-3 -5 -1 -10 4 -10 6 0 11 5 11 10 0 6 -2 10 -4 10 -3 0
-8 -4 -11 -10z"/>
<path d="M3170 2786 c0 -9 30 -14 35 -6 4 6 -3 10 -14 10 -12 0 -21 -2 -21 -4z"/>
<path d="M3225 2780 c-3 -5 -1 -10 4 -10 6 0 11 5 11 10 0 6 -2 10 -4 10 -3 0
-8 -4 -11 -10z"/>
<path d="M2890 2769 c0 -5 5 -7 10 -4 6 3 10 8 10 11 0 2 -4 4 -10 4 -5 0 -10
-5 -10 -11z"/>
<path d="M2845 2759 c-4 -6 -4 -13 -1 -16 3 -4 6 -1 6 6 0 8 6 11 16 7 8 -3
12 -2 9 4 -8 13 -22 13 -30 -1z"/>
<path d="M3010 2755 c0 -8 4 -15 10 -15 5 0 7 7 4 15 -4 8 -8 15 -10 15 -2 0
-4 -7 -4 -15z"/>
<path d="M3068 2763 c7 -3 16 -2 19 1 4 3 -2 6 -13 5 -11 0 -14 -3 -6 -6z"/>
<path d="M2905 2710 c-13 -6 -15 -9 -5 -9 8 0 22 4 30 9 18 12 2 12 -25 0z"/>
<path d="M3245 2690 c3 -5 11 -10 16 -10 6 0 7 5 4 10 -3 6 -11 10 -16 10 -6
0 -7 -4 -4 -10z"/>
<path d="M2762 2666 c7 -8 15 -12 17 -11 5 6 -10 25 -20 25 -5 0 -4 -6 3 -14z"/>
<path d="M3285 2670 c3 -5 10 -10 16 -10 5 0 9 5 9 10 0 6 -7 10 -16 10 -8 0
-12 -4 -9 -10z"/>
<path d="M2695 2650 c-3 -6 1 -7 9 -4 18 7 21 14 7 14 -6 0 -13 -4 -16 -10z"/>
<path d="M2640 2640 c0 -6 7 -10 15 -10 8 0 15 2 15 4 0 2 -7 6 -15 10 -8 3
-15 1 -15 -4z"/>
<path d="M2963 2622 c1 -12 6 -18 15 -15 7 3 10 9 5 12 -4 3 -11 10 -15 15 -4
4 -6 -1 -5 -12z"/>
<path d="M2930 2620 c-9 -6 -10 -10 -3 -10 6 0 15 5 18 10 8 12 4 12 -15 0z"/>
<path d="M1916 2583 c-12 -26 -11 -35 15 -103 l28 -75 0 50 c1 70 -10 155 -20
155 -5 0 -15 -12 -23 -27z"/>
<path d="M2700 2594 c-17 -9 -20 -14 -9 -14 9 0 22 7 29 15 15 18 13 18 -20
-1z"/>
<path d="M2651 2584 c0 -11 3 -14 6 -6 3 7 2 16 -1 19 -3 4 -6 -2 -5 -13z"/>
<path d="M3380 2596 c0 -2 8 -10 18 -17 15 -13 16 -12 3 4 -13 16 -21 21 -21
13z"/>
<path d="M2580 2579 c0 -5 5 -7 10 -4 6 3 10 8 10 11 0 2 -4 4 -10 4 -5 0 -10
-5 -10 -11z"/>
<path d="M3361 2584 c1 -21 16 -47 21 -38 4 5 0 18 -8 29 -8 10 -14 15 -13 9z"/>
<path d="M3487 2495 c-8 -79 -68 -197 -132 -261 -204 -205 -541 -267 -1015
-189 -52 9 -135 22 -185 30 -49 8 -119 19 -155 24 -122 20 -127 18 -154 -41
l-25 -53 87 -21 c48 -12 141 -36 207 -54 66 -17 143 -38 170 -45 28 -8 102
-28 165 -44 403 -109 610 -117 817 -35 156 62 253 155 299 289 22 64 22 198 0
283 -16 62 -61 172 -69 172 -2 0 -7 -25 -10 -55z"/>
<path d="M2547 2526 c-3 -8 0 -17 7 -19 10 -4 12 1 9 14 -6 23 -9 24 -16 5z"/>
<path d="M2760 2520 c8 -5 20 -10 25 -10 6 0 3 5 -5 10 -8 5 -19 10 -25 10 -5
0 -3 -5 5 -10z"/>
<path d="M3397 2523 c-4 -3 -7 -13 -7 -22 1 -13 3 -13 11 2 11 19 8 33 -4 20z"/>
<path d="M2520 2500 c8 -5 20 -10 25 -10 6 0 3 5 -5 10 -8 5 -19 10 -25 10 -5
0 -3 -5 5 -10z"/>
<path d="M2355 2480 c-3 -5 -1 -10 4 -10 6 0 11 5 11 10 0 6 -2 10 -4 10 -3 0
-8 -4 -11 -10z"/>
<path d="M2730 2480 c0 -5 5 -10 10 -10 6 0 10 5 10 10 0 6 -4 10 -10 10 -5 0
-10 -4 -10 -10z"/>
<path d="M3100 2480 c-8 -5 -10 -10 -5 -10 6 0 17 5 25 10 8 5 11 10 5 10 -5
0 -17 -5 -25 -10z"/>
<path d="M2928 2453 c-54 -13 -202 -96 -375 -210 -28 -18 -98 -58 -154 -88
-61 -32 -98 -56 -89 -59 48 -16 198 -28 352 -28 l178 0 85 48 c106 61 200 135
221 175 33 65 10 129 -56 150 -37 12 -133 19 -162 12z"/>
<path d="M2290 2446 c0 -2 7 -6 15 -10 8 -3 15 -1 15 4 0 6 -7 10 -15 10 -8 0
-15 -2 -15 -4z"/>
<path d="M3187 2436 c-4 -10 -1 -13 8 -9 8 3 12 9 9 14 -7 12 -11 11 -17 -5z"/>
<path d="M3228 2443 c7 -3 16 -2 19 1 4 3 -2 6 -13 5 -11 0 -14 -3 -6 -6z"/>
<path d="M2337 2434 c-8 -9 21 -44 37 -44 6 0 4 6 -5 13 -9 7 -18 18 -20 25
-2 7 -8 10 -12 6z"/>
<path d="M2610 2430 c0 -5 5 -10 11 -10 5 0 7 5 4 10 -3 6 -8 10 -11 10 -2 0
-4 -4 -4 -10z"/>
<path d="M2238 2413 c7 -3 16 -2 19 1 4 3 -2 6 -13 5 -11 0 -14 -3 -6 -6z"/>
<path d="M2395 2410 c-3 -6 1 -7 9 -4 18 7 21 14 7 14 -6 0 -13 -4 -16 -10z"/>
<path d="M2590 2410 c0 -5 5 -10 11 -10 5 0 7 5 4 10 -3 6 -8 10 -11 10 -2 0
-4 -4 -4 -10z"/>
<path d="M3208 2366 c3 -35 8 -45 25 -50 20 -5 21 -4 5 8 -12 8 -18 27 -18 50
0 20 -3 36 -8 36 -4 0 -6 -20 -4 -44z"/>
<path d="M2318 2373 c7 -3 16 -2 19 1 4 3 -2 6 -13 5 -11 0 -14 -3 -6 -6z"/>
<path d="M2560 2366 c0 -2 7 -7 16 -10 8 -3 12 -2 9 4 -6 10 -25 14 -25 6z"/>
<path d="M3333 2346 c-12 -13 -27 -35 -33 -48 -9 -18 -6 -17 14 7 27 31 50 65
43 65 -2 0 -13 -11 -24 -24z"/>
<path d="M2078 2343 c7 -3 16 -2 19 1 4 3 -2 6 -13 5 -11 0 -14 -3 -6 -6z"/>
<path d="M2168 2343 c7 -3 16 -2 19 1 4 3 -2 6 -13 5 -11 0 -14 -3 -6 -6z"/>
<path d="M2610 2339 c0 -5 5 -7 10 -4 6 3 10 8 10 11 0 2 -4 4 -10 4 -5 0 -10
-5 -10 -11z"/>
<path d="M2457 2333 c-11 -11 -8 -21 9 -27 14 -5 15 -4 5 8 -9 11 -9 15 1 19
7 3 8 6 2 6 -6 1 -14 -2 -17 -6z"/>
<path d="M2020 2326 c0 -2 9 -6 20 -9 11 -3 18 -1 14 4 -5 9 -34 13 -34 5z"/>
<path d="M2401 2321 c-7 -5 -9 -11 -5 -14 5 -3 15 1 22 9 14 16 5 18 -17 5z"/>
<path d="M2000 2305 c14 -8 30 -14 35 -14 6 0 -1 6 -15 14 -14 8 -29 14 -35
14 -5 0 1 -6 15 -14z"/>
<path d="M1948 2293 c7 -3 16 -2 19 1 4 3 -2 6 -13 5 -11 0 -14 -3 -6 -6z"/>
<path d="M2358 2293 c7 -3 16 -2 19 1 4 3 -2 6 -13 5 -11 0 -14 -3 -6 -6z"/>
<path d="M2430 2296 c0 -2 7 -7 16 -10 8 -3 12 -2 9 4 -6 10 -25 14 -25 6z"/>
<path d="M2105 2280 c-3 -5 -1 -10 4 -10 6 0 11 5 11 10 0 6 -2 10 -4 10 -3 0
-8 -4 -11 -10z"/>
<path d="M1915 2270 c3 -5 8 -10 11 -10 2 0 4 5 4 10 0 6 -5 10 -11 10 -5 0
-7 -4 -4 -10z"/>
<path d="M3183 2250 c0 -23 3 -28 9 -16 5 9 5 23 0 32 -6 12 -9 7 -9 -16z"/>
<path d="M2298 2263 c7 -3 16 -2 19 1 4 3 -2 6 -13 5 -11 0 -14 -3 -6 -6z"/>
<path d="M3240 2245 c-13 -14 -20 -25 -15 -25 7 0 45 39 45 47 0 7 -8 2 -30
-22z"/>
<path d="M1740 2250 c0 -5 5 -10 10 -10 6 0 10 5 10 10 0 6 -4 10 -10 10 -5 0
-10 -4 -10 -10z"/>
<path d="M2028 2253 c7 -3 16 -2 19 1 4 3 -2 6 -13 5 -11 0 -14 -3 -6 -6z"/>
<path d="M1945 2240 c3 -5 14 -10 23 -10 15 0 15 2 2 10 -20 13 -33 13 -25 0z"/>
<path d="M1563 2233 c15 -2 39 -2 55 0 15 2 2 4 -28 4 -30 0 -43 -2 -27 -4z"/>
<path d="M1880 2223 c0 -5 11 -8 24 -8 13 0 22 3 19 8 -2 4 -13 7 -24 7 -10 0
-19 -3 -19 -7z"/>
<path d="M2185 2220 c-3 -5 -1 -10 4 -10 6 0 11 5 11 10 0 6 -2 10 -4 10 -3 0
-8 -4 -11 -10z"/>
<path d="M3143 2215 c-3 -9 -3 -18 -1 -21 3 -3 8 4 11 16 6 23 -1 27 -10 5z"/>
<path d="M2280 2210 c-9 -6 -10 -10 -3 -10 6 0 15 5 18 10 8 12 4 12 -15 0z"/>
<path d="M2140 2195 c-7 -8 -9 -15 -6 -15 4 0 14 7 22 15 9 8 11 15 6 15 -5 0
-15 -7 -22 -15z"/>
<path d="M1517 2188 c6 -10 35 -10 51 0 8 5 -1 8 -22 8 -19 -1 -32 -4 -29 -8z"/>
<path d="M1630 2190 c20 -13 33 -13 25 0 -3 6 -14 10 -23 10 -15 0 -15 -2 -2
-10z"/>
<path d="M2000 2160 c-13 -9 -13 -10 0 -10 8 0 22 5 30 10 13 9 13 10 0 10 -8
0 -22 -5 -30 -10z"/>
<path d="M2080 2150 c-12 -8 -10 -10 8 -10 13 0 20 4 17 10 -7 12 -6 12 -25 0z"/>
<path d="M3032 2143 c-6 -2 -10 -9 -6 -14 8 -14 21 -11 21 6 0 8 -1 15 -1 14
-1 0 -7 -3 -14 -6z"/>
<path d="M2168 2133 c7 -3 16 -2 19 1 4 3 -2 6 -13 5 -11 0 -14 -3 -6 -6z"/>
<path d="M1585 2119 c-89 -10 -202 -41 -255 -70 l-35 -20 45 7 c25 4 99 7 165
6 129 -1 134 1 177 61 22 31 32 30 -97 16z"/>
<path d="M2253 2113 c9 -2 23 -2 30 0 6 3 -1 5 -18 5 -16 0 -22 -2 -12 -5z"/>
<path d="M1294 1944 c3 -9 6 -76 6 -150 l0 -134 41 0 41 0 -2 43 c-3 63 -2 67
19 67 23 0 30 -9 52 -65 15 -37 20 -40 58 -42 22 -1 41 0 41 2 0 3 -12 29 -27
60 l-27 55 22 23 c33 35 31 108 -4 136 -23 18 -41 21 -126 21 -87 0 -99 -2
-94 -16z m161 -58 c19 -28 10 -54 -22 -67 -37 -14 -63 5 -63 45 0 40 5 46 41
46 19 0 34 -8 44 -24z"/>
<path d="M1636 1928 c-3 -13 -10 -50 -15 -83 -6 -33 -17 -88 -25 -123 -10 -47
-11 -64 -2 -67 6 -2 23 -6 38 -9 31 -7 27 -16 53 119 9 44 21 97 26 119 12 44
7 51 -38 61 -28 6 -33 4 -37 -17z"/>
<path d="M1778 1893 c-16 -40 -13 -148 6 -217 18 -67 21 -71 58 -80 23 -5 34
2 88 62 60 65 76 91 98 160 10 31 9 34 -15 43 -41 15 -56 7 -65 -35 -8 -38
-72 -136 -88 -136 -22 0 -24 98 -4 181 5 23 2 28 -27 38 -41 14 -38 15 -51
-16z"/>
<path d="M3558 1882 c-39 -18 -141 -109 -136 -122 2 -4 47 -53 100 -110 l97
-102 45 37 c73 59 96 96 96 153 0 63 -30 109 -90 140 -53 26 -64 27 -112 4z
m72 -67 c62 -32 80 -103 36 -144 -22 -21 -27 -22 -45 -9 -37 26 -103 108 -98
121 4 11 61 46 75 47 2 0 16 -7 32 -15z"/>
<path d="M2077 1829 c-6 -21 -68 -241 -74 -260 -3 -12 17 -22 93 -44 94 -28
97 -28 110 -10 8 10 14 24 14 31 0 13 -8 16 -65 29 -38 8 -55 23 -55 46 0 27
14 30 60 14 56 -20 59 -19 71 12 12 31 4 38 -53 47 -43 7 -59 30 -37 52 13 12
22 11 67 -5 38 -14 54 -16 57 -8 2 7 6 20 9 29 6 21 -9 31 -89 52 -33 8 -70
18 -82 22 -15 4 -24 2 -26 -7z"/>
<path d="M2322 1741 c-6 -14 -13 -39 -17 -56 -3 -16 -18 -67 -32 -113 -16 -49
-23 -86 -17 -92 5 -5 22 -10 38 -12 28 -3 31 0 44 45 21 74 62 58 62 -25 0
-50 7 -59 64 -72 26 -6 28 -5 23 16 -3 13 -9 42 -13 65 -6 39 -4 43 19 54 15
7 32 28 42 51 14 36 14 42 0 72 -18 37 -54 56 -147 80 l-57 14 -9 -27z m130
-74 c14 -21 8 -56 -10 -66 -9 -5 -30 -7 -45 -4 -21 4 -27 11 -27 30 0 43 18
66 48 58 15 -4 30 -12 34 -18z"/>
<path d="M3350 1734 c-29 -16 -28 -19 10 -96 16 -32 24 -60 20 -63 -5 -3 -50
17 -100 45 l-92 51 -28 -18 -29 -18 39 -84 c22 -45 40 -85 40 -87 0 -16 42
-94 51 -94 9 0 47 17 57 26 2 1 -11 32 -28 69 -17 37 -29 69 -25 73 6 7 69
-23 139 -66 33 -21 42 -22 67 -12 16 7 29 18 29 25 0 7 -16 51 -36 97 -20 45
-43 97 -50 115 -8 17 -14 36 -14 42 0 14 -19 12 -50 -5z"/>
<path d="M2585 1646 c-12 -76 22 -93 49 -26 23 58 21 70 -13 70 -27 0 -30 -3
-36 -44z"/>
<path d="M2695 1635 c-30 -29 -31 -51 -7 -117 17 -50 17 -50 -6 -68 -13 -11
-30 -16 -37 -13 -10 3 -15 -2 -15 -15 0 -54 29 -65 95 -38 56 24 68 66 39 143
-20 51 -13 73 21 73 27 0 28 3 19 38 -9 33 -76 31 -109 -3z"/>
<path d="M3000 1630 c-88 -5 -95 -6 -92 -25 1 -11 5 -78 9 -148 l6 -128 101 3
101 3 3 33 3 32 -64 0 c-51 0 -66 3 -71 17 -10 24 5 33 60 37 47 3 49 4 52 34
l3 32 -60 0 c-58 0 -61 1 -61 25 0 23 4 24 63 27 60 3 62 4 59 28 -2 14 -7 27
-10 30 -4 3 -50 3 -102 0z"/>
</g>
</svg>
